<svg xmlns="http://www.w3.org/2000/svg" width="32" height="32" viewBox="0 0 32 32"><g transform="translate(999.531 -1406.633)"><path fill="#34485c" fill-rule="evenodd" style="line-height:normal;text-indent:0;text-align:start;text-decoration-line:none;text-decoration-style:solid;text-decoration-color:#000;text-transform:none;block-progression:tb;isolation:auto;mix-blend-mode:normal" d="m -985.15039,1422.1621 a 0.50005,0.50005 0 0 0 -0.41016,0.7559 l 0.86914,1.5058 a 0.50050437,0.50050437 0 1 0 0.86719,-0.5 l -0.87109,-1.5058 a 0.50005,0.50005 0 0 0 -0.45508,-0.2559 z m 2.49609,4.3203 a 0.50005,0.50005 0 0 0 -0.41015,0.7559 l 1.0039,1.7422 a 0.50005,0.50005 0 1 0 0.86524,-0.5 l -1.00391,-1.7422 a 0.50005,0.50005 0 0 0 -0.45508,-0.2559 z" color="#000" font-family="sans-serif" font-weight="400" overflow="visible"/><path fill="#34485c" fill-rule="evenodd" style="line-height:normal;text-indent:0;text-align:start;text-decoration-line:none;text-decoration-style:solid;text-decoration-color:#000;text-transform:none;block-progression:tb;isolation:auto;mix-blend-mode:normal" d="M-980.76172 1427.7305a.50005.50005 0 0 0-.25.066l-1.73242 1a.50005.50005 0 1 0 .5.8652l1.61719-.9316-.13477 0a.50005.50005 0 1 0 0-1zM-984.51172 1421.2344a.50005.50005 0 0 0-.25.066l-1.73242 1a.5005087.5005087 0 0 0 .5.8672l1.61719-.9336-.13477 0a.50005.50005 0 1 0 0-1z" color="#000" font-family="sans-serif" font-weight="400" overflow="visible"/><path fill="#2b4255" style="line-height:normal;text-indent:0;text-align:start;text-decoration-line:none;text-decoration-style:solid;text-decoration-color:#000;text-transform:none;block-progression:tb;isolation:auto;mix-blend-mode:normal" d="m -993.53125,1419.6328 c -3.30778,0 -6.00001,2.6922 -6,6 -10e-6,3.3078 2.69222,6 6,6 3.30778,0 6.00001,-2.6922 6,-6 10e-6,-3.3078 -2.69222,-6 -6,-6 z m 0,1 c 2.76734,0 5,2.2327 5,5 0,2.7674 -2.23266,5 -5,5 -2.76734,0 -5,-2.2326 -5,-5 0,-2.7673 2.23266,-5 5,-5 z" color="#000" font-family="sans-serif" font-weight="400" overflow="visible"/><path fill="#576d7e" fill-rule="evenodd" style="line-height:normal;text-indent:0;text-align:start;text-decoration-line:none;text-decoration-style:solid;text-decoration-color:#000;text-transform:none;block-progression:tb;isolation:auto;mix-blend-mode:normal" d="m -983.53125,1423.6328 -0.0508,0.9981 10.08789,0.5175 0.0508,-1 -10.08789,-0.5156 z" color="#000" font-family="sans-serif" font-weight="400" overflow="visible"/><path fill="#2b4255" style="line-height:normal;text-indent:0;text-align:start;text-decoration-line:none;text-decoration-style:solid;text-decoration-color:#000;text-transform:none;block-progression:tb;isolation:auto;mix-blend-mode:normal" d="m -973.53125,1419.6328 c -3.30778,0 -6.00001,2.6922 -6,6 -10e-6,3.3078 2.69222,6 6,6 3.30778,0 6.00001,-2.6922 6,-6 10e-6,-3.3078 -2.69222,-6 -6,-6 z m 0,1 c 2.76734,0 5,2.2327 5,5 0,2.7674 -2.23266,5 -5,5 -2.76734,0 -5,-2.2326 -5,-5 0,-2.7673 2.23266,-5 5,-5 z" color="#000" font-family="sans-serif" font-weight="400" overflow="visible"/><path fill="#576d7e" fill-rule="evenodd" style="line-height:normal;text-indent:0;text-align:start;text-decoration-line:none;text-decoration-style:solid;text-decoration-color:#000;text-transform:none;block-progression:tb;isolation:auto;mix-blend-mode:normal" d="m -973.55664,1426.123 -10.06055,0.5137 0.0508,0.9981 10.06055,-0.5118 -0.0508,-1 z" color="#000" font-family="sans-serif" font-weight="400" overflow="visible"/><path fill="#2b4255" style="line-height:normal;text-indent:0;text-align:start;text-decoration-line:none;text-decoration-style:solid;text-decoration-color:#000;text-transform:none;block-progression:tb;isolation:auto;mix-blend-mode:normal" d="m -983.54688,1423.6328 c -1.09864,0 -2,0.9014 -2,2 0,1.0987 0.90136,2 2,2 1.09865,0 2,-0.9013 2,-2 0,-1.0986 -0.90135,-2 -2,-2 z m 0,1 c 0.55821,0 1.00001,0.4418 1,1 0,0.5582 -0.44179,1 -1,1 -0.5582,0 -1,-0.4418 -1,-1 0,-0.5582 0.4418,-1 1,-1 z" color="#000" font-family="sans-serif" font-weight="400" overflow="visible"/><path fill="#f05542" fill-rule="evenodd" style="line-height:normal;text-indent:0;text-align:start;text-decoration-line:none;text-decoration-style:solid;text-decoration-color:#000;text-transform:none;block-progression:tb;isolation:auto;mix-blend-mode:normal" d="m -990.03125,1412.6328 c -0.82235,0 -1.5,0.6777 -1.5,1.5 0,0.8224 0.67765,1.5 1.5,1.5 a 0.50005,0.50005 0 1 0 0,-1 c -0.28565,0 -0.5,-0.2143 -0.5,-0.5 0,-0.2856 0.21435,-0.5 0.5,-0.5 l 2.36914,0 -5.86914,10.7598 a 0.50081607,0.50081607 0 0 0 0.87891,0.4804 l 5.99414,-10.9921 0.29297,-0.4922 a 0.50005,0.50005 0 0 0 -0.42969,-0.7559 l -3.23633,0 z" color="#000" font-family="sans-serif" font-weight="400" overflow="visible"/><path fill="#f05542" fill-rule="evenodd" style="line-height:normal;text-indent:0;text-align:start;text-decoration-line:none;text-decoration-style:solid;text-decoration-color:#000;text-transform:none;block-progression:tb;isolation:auto;mix-blend-mode:normal" d="m -988.53125,1416.1328 0,1 9.4082,0 0,-1 -9.4082,0 z" color="#000" font-family="sans-serif" font-weight="400" overflow="visible"/><path fill="#f05542" fill-rule="evenodd" style="line-height:normal;text-indent:0;text-align:start;text-decoration-line:none;text-decoration-style:solid;text-decoration-color:#000;text-transform:none;block-progression:tb;isolation:auto;mix-blend-mode:normal" d="m -980.06641,1413.6328 c -0.82235,0 -1.5,0.6777 -1.5,1.5 a 0.50005,0.50005 0 1 0 1,0 c 0,-0.2856 0.21436,-0.5 0.5,-0.5 l 1.46875,0 -5.0664,9.2832 a 0.50005,0.50005 0 1 0 0.87695,0.4785 l 5.19336,-9.5136 0.29297,-0.4922 a 0.50005,0.50005 0 0 0 -0.42969,-0.7559 l -2.33594,0 z" color="#000" font-family="sans-serif" font-weight="400" overflow="visible"/><path fill="#f05542" fill-rule="evenodd" style="line-height:normal;text-indent:0;text-align:start;text-decoration-line:none;text-decoration-style:solid;text-decoration-color:#000;text-transform:none;block-progression:tb;isolation:auto;mix-blend-mode:normal" d="m -978.49805,1416.1348 -0.8164,0.5761 5.92773,8.3985 0.81641,-0.5762 -5.92774,-8.3984 z" color="#000" font-family="sans-serif" font-weight="400" overflow="visible"/><path fill="#2b4255" style="line-height:normal;text-indent:0;text-align:start;text-decoration-line:none;text-decoration-style:solid;text-decoration-color:#000;text-transform:none;block-progression:tb;isolation:auto;mix-blend-mode:normal" d="M-973.53125 1424.1328c-.8225 0-1.5.6775-1.5 1.5 0 .8225.6775 1.5 1.5 1.5.8225 0 1.5-.6775 1.5-1.5 0-.8225-.6775-1.5-1.5-1.5zm0 1c.28206 0 .5.2179.5.5 0 .2821-.21794.5-.5.5-.28206 0-.5-.2179-.5-.5 0-.2821.21794-.5.5-.5zM-993.53125 1424.1328c-.8225 0-1.5.6775-1.5 1.5 0 .8225.6775 1.5 1.5 1.5.8225 0 1.5-.6775 1.5-1.5 0-.8225-.6775-1.5-1.5-1.5zm0 1c.28206 0 .5.2179.5.5 0 .2821-.21794.5-.5.5-.28206 0-.5-.2179-.5-.5 0-.2821.21794-.5.5-.5z" color="#000" font-family="sans-serif" font-weight="400" overflow="visible"/></g></svg>